<?xml version="1.0" encoding="UTF-8"?>
<svg xmlns="http://www.w3.org/2000/svg" xmlns:xlink="http://www.w3.org/1999/xlink" version="1.1" viewBox="0 0 24 24">
  <style type="text/css">
    :root {
      --color-blue-400: oklch(70.7% 0.165 254.624);
      --color-blue-600: oklch(54.6% 0.245 262.881);
    }
  </style>
  <path d="M4.82556 13C-2.38419e-07 15.5 2.5 21 6 21H7" fill="none" stroke="var(--color-blue-600)" stroke-width="2" />
  <path d="M6.27522 21H19.2724C20.377 21 21.2724 20.1046 21.2724 19V5C21.2724 3.89543 20.377 3 19.2724 3H9.27427" fill="none" stroke="var(--color-blue-600)" stroke-width="2" stroke-linecap="round" stroke-linejoin="round" />
  <path d="M16.7724 11.3284C17.3027 11.3284 17.8114 11.5391 18.1864 11.914L19.7294 13.457L21.2724 15V19C21.2724 20.1046 20.377 21 19.2724 21H6.27242L15.3584 11.914C15.7335 11.5391 16.2421 11.3284 16.7724 11.3284Z" fill="var(--color-blue-400)" stroke="var(--color-blue-400)" stroke-width="2" stroke-linecap="round" stroke-linejoin="round" />
  <path d="M9.27242 12C10.9293 12 12.2724 10.6569 12.2724 9C12.2724 7.34315 10.9293 6 9.27242 6C7.61556 6 6.27242 7.34315 6.27242 9C6.27242 10.6569 7.61556 12 9.27242 12Z" fill="var(--color-blue-400)" />
  <circle cx="9.27242" cy="9" r="6" fill="none" stroke="var(--color-blue-600)" stroke-width="2" />
</svg>
